<?xml version="1.0" encoding="iso-8859-1"?>
<!-- Generator: Adobe Illustrator 19.0.0, SVG Export Plug-In . SVG Version: 6.00 Build 0)  -->
<svg version="1.1" id="Capa_1" xmlns="http://www.w3.org/2000/svg" xmlns:xlink="http://www.w3.org/1999/xlink" x="0px" y="0px"
	 viewBox="0 0 512 512" style="enable-background:new 0 0 512 512;" xml:space="preserve">
<path style="fill:#E0230D;" d="M414.5,7.5h-30v497h30c49.5,0,90-40.5,90-90v-317C504.5,48,464,7.5,414.5,7.5z"/>
<path style="fill:#FF5440;" d="M474.5,97.5v317c0,49.5-40.5,90-90,90h-287c-49.5,0-90-40.5-90-90v-317c0-49.5,40.5-90,90-90h287
	C434,7.5,474.5,48,474.5,97.5z"/>
<path style="fill:#FFFFFF;" d="M340.25,191.75v-40c0-46.456-37.794-84.25-84.25-84.25h-64.25c-11.046,0-20,8.954-20,20v337
	c0,11.046,8.954,20,20,20H256c46.456,0,84.25-37.794,84.25-84.25v-40c0-25.72-11.583-48.784-29.81-64.25
	C328.667,240.534,340.25,217.47,340.25,191.75z M300.25,360.25c0,24.399-19.851,44.25-44.25,44.25h-44.25V276H256
	c24.399,0,44.25,19.851,44.25,44.25V360.25z M300.25,191.75c0,24.399-19.851,44.25-44.25,44.25h-44.25V107.5H256
	c24.399,0,44.25,19.851,44.25,44.25V191.75z"/>
<path d="M414.5,0h-317C43.738,0,0,43.738,0,97.5v317C0,468.262,43.738,512,97.5,512h317c53.762,0,97.5-43.738,97.5-97.5v-317
	C512,43.738,468.262,0,414.5,0z M497,414.5c0,45.49-37.01,82.5-82.5,82.5h-317C52.01,497,15,459.99,15,414.5v-317
	C15,52.01,52.01,15,97.5,15h317c45.49,0,82.5,37.01,82.5,82.5V414.5z"/>
<path d="M256,268.5h-44.25c-4.143,0-7.5,3.357-7.5,7.5v128.5c0,4.143,3.357,7.5,7.5,7.5H256c28.535,0,51.75-23.215,51.75-51.75v-40
	C307.75,291.715,284.535,268.5,256,268.5z M292.75,360.25c0,20.264-16.486,36.75-36.75,36.75h-36.75V283.5H256
	c20.264,0,36.75,16.486,36.75,36.75V360.25z"/>
<path d="M256,60h-64.25c-15.163,0-27.5,12.337-27.5,27.5v337c0,15.163,12.337,27.5,27.5,27.5H256c50.591,0,91.75-41.159,91.75-91.75
	v-40c0-24.156-9.496-47.141-26.305-64.25c16.809-17.109,26.305-40.094,26.305-64.25v-40C347.75,101.159,306.591,60,256,60z
	 M332.75,191.75c0,22.55-9.9,43.884-27.162,58.531c-1.68,1.425-2.647,3.517-2.647,5.719s0.968,4.294,2.647,5.719
	c17.262,14.647,27.162,35.981,27.162,58.531v40c0,42.32-34.43,76.75-76.75,76.75h-64.25c-6.893,0-12.5-5.607-12.5-12.5v-337
	c0-6.893,5.607-12.5,12.5-12.5H256c42.32,0,76.75,34.43,76.75,76.75V191.75z"/>
<path d="M256,100h-44.25c-4.143,0-7.5,3.357-7.5,7.5v49.25c0,4.143,3.357,7.5,7.5,7.5s7.5-3.357,7.5-7.5V115H256
	c20.264,0,36.75,16.486,36.75,36.75v40c0,20.264-16.486,36.75-36.75,36.75h-36.75v-41.75c0-4.143-3.357-7.5-7.5-7.5
	s-7.5,3.357-7.5,7.5V236c0,4.143,3.357,7.5,7.5,7.5H256c28.535,0,51.75-23.215,51.75-51.75v-40C307.75,123.215,284.535,100,256,100z
	"/>
<g>
</g>
<g>
</g>
<g>
</g>
<g>
</g>
<g>
</g>
<g>
</g>
<g>
</g>
<g>
</g>
<g>
</g>
<g>
</g>
<g>
</g>
<g>
</g>
<g>
</g>
<g>
</g>
<g>
</g>
</svg>
