<svg id="Layer_1" enable-background="new 0 0 56.689 56.689" height="512" viewBox="0 0 56.689 56.689" width="512" xmlns="http://www.w3.org/2000/svg"><g><path d="m6.992 31.057 8.645 8.645c.722.725 1.683 1.122 2.706 1.122 1.022 0 1.983-.397 2.707-1.122.723-.724 1.121-1.685 1.121-2.706 0-1.022-.398-1.983-1.121-2.706l-2.117-2.118h17.687c2.109 0 3.827-1.717 3.827-3.827s-1.718-3.828-3.827-3.828h-17.687l2.116-2.116c1.491-1.491 1.491-3.921 0-5.413-1.445-1.444-3.967-1.444-5.412 0l-8.652 8.65c-.217.257-.981 1.221-.993 2.67-.013 1.501.788 2.5 1 2.749zm1.52-4.115 8.54-8.541c.689-.688 1.895-.688 2.584 0 .712.713.712 1.872 0 2.585l-5.53 5.53h22.514c1.008 0 1.827.82 1.827 1.828s-.819 1.827-1.827 1.827h-22.516l5.531 5.531c.712.713.712 1.871 0 2.584-.691.69-1.896.69-2.584 0l-8.648-8.647c-.092-.109-.527-.651-.467-1.441.053-.7.462-1.14.576-1.256zm42.313-22.305v47.417h-23.916c-.554 0-1-.447-1-1s.446-1 1-1h21.916v-43.417h-22c-.554 0-1-.447-1-1s.446-1 1-1z"/></g></svg>